<svg width="165" height="38" viewBox="0 0 165 38" fill="none" xmlns="http://www.w3.org/2000/svg"><path d="M91.8978 0.787926H102.065L96.95 37.2767H86.783L91.8978 0.787926ZM79.0808 0.787926L72.2197 21.8079L69.2257 0.787926H62.1152L53.1332 21.7456L52.0106 0.787926H42.1555L45.5861 37.2767H53.757L63.8617 14.1983L67.417 37.2767H75.4631L88.7488 0.787926H79.0808ZM164.439 21.9951H140.3C140.425 26.7355 143.263 29.8542 147.442 29.8542C150.592 29.8542 153.087 28.17 155.02 24.9578L163.169 28.6617C160.367 34.1798 154.466 37.7756 147.192 37.7756C137.275 37.7756 130.694 31.1016 130.694 20.3734C130.694 8.5847 138.429 0.226562 149.344 0.226562C158.95 0.226562 165 6.71345 165 16.818C165 18.5021 164.813 20.1862 164.439 21.9951ZM155.394 15.0091C155.394 10.7678 153.024 8.08564 149.219 8.08564C145.29 8.08564 142.046 10.8925 141.173 15.0091H155.394ZM10.3781 11.7836L0 23.9121H18.5305L20.6128 18.1931H12.6723L17.5241 12.5834L17.5396 12.4346L14.3848 7.00402H28.5784L17.576 37.2767H25.1052L38.3909 0.787957H4.06815L10.3781 11.7836ZM118.594 8.08567C122.18 8.08567 125.323 10.0143 128.067 13.3201L129.509 3.03339C126.952 1.30251 123.49 0.226562 118.906 0.226562C109.799 0.226562 104.684 5.55956 104.684 12.3271C104.684 17.0207 107.304 19.8899 111.608 21.7456L113.666 22.6812C117.502 24.3185 118.531 25.1294 118.531 26.8603C118.531 28.6535 116.8 29.7918 114.165 29.7918C109.815 29.8074 106.291 27.5775 103.64 23.7727L102.171 34.2536C105.189 36.5555 109.059 37.7757 114.165 37.7757C122.82 37.7757 128.137 32.7858 128.137 25.8622C128.137 21.153 126.048 18.1279 120.777 15.7577L118.531 14.6973C115.413 13.3095 114.352 12.5454 114.352 11.0173C114.352 9.36437 115.803 8.08567 118.594 8.08567Z" fill="#163300"></path></svg>